<?xml version="1.0" encoding="utf-8"?>
<!-- Generator: Adobe Illustrator 19.2.1, SVG Export Plug-In . SVG Version: 6.00 Build 0)  -->
<svg version="1.1" id="Layer_1" xmlns="http://www.w3.org/2000/svg" xmlns:xlink="http://www.w3.org/1999/xlink" x="0px" y="0px"
	 viewBox="0 0 200 200" style="enable-background:new 0 0 200 200;" xml:space="preserve">
<style type="text/css">
	.st0{fill:#377745;}
	.st1{fill:#D42035;}
	.st2{fill:#CBA942;}
</style>
<polygon class="st0" points="118.5,79.3 118.5,19.4 80.8,19.4 80.8,79.3 19.7,79.3 19.7,119.3 80.8,119.3 80.8,179.2 118.5,179.2 
	118.5,119.3 179.6,119.3 179.6,79.3 "/>
<circle class="st1" cx="99.6" cy="99.3" r="29.5"/>
<g>
	<path class="st2" d="M99.6,15.7c-46.1,0-83.6,37.5-83.6,83.6s37.5,83.6,83.6,83.6s83.6-37.5,83.6-83.6S145.7,15.7,99.6,15.7z
		 M175.3,77.6h-52.2l33-33C165,53.7,171.7,65,175.3,77.6z M121.3,23.6c12.6,3.6,23.9,10.3,33.1,19.2L121.3,76V23.6z M82.8,22.4
		c5.4-1.2,11.1-1.8,16.9-1.8c5.8,0,11.4,0.6,16.9,1.8v50c-4.9-3.1-10.7-4.9-16.9-4.9c-6.2,0-12,1.8-16.9,4.9V22.4z M77.9,23.6v52.3
		L44.9,42.8C54,33.9,65.3,27.2,77.9,23.6z M43.2,44.5l33.1,33.1H23.9C27.6,65,34.3,53.7,43.2,44.5z M20.9,99.3
		c0-5.8,0.6-11.4,1.8-16.9h50c-3.1,4.9-4.9,10.7-4.9,16.9c0,6.2,1.8,12,4.9,16.9h-50C21.5,110.7,20.9,105.1,20.9,99.3z M23.9,121
		h52.4l-33.1,33.1C34.3,145,27.6,133.6,23.9,121z M77.9,175c-12.6-3.6-23.9-10.3-33-19.1l33-33V175z M116.5,176.2
		c-5.4,1.2-11.1,1.8-16.9,1.8c-5.8,0-11.4-0.6-16.9-1.8v-50c4.9,3.1,10.7,4.9,16.9,4.9c6.2,0,12-1.8,16.9-4.9V176.2z M99.6,125.8
		c-14.8,0-26.9-12-26.9-26.9c0-14.8,12-26.9,26.9-26.9s26.9,12,26.9,26.9C126.5,113.8,114.5,125.8,99.6,125.8z M121.3,175v-52.3
		l33.1,33.1C145.2,164.7,133.9,171.4,121.3,175z M156.1,154.1L123,121h52.3C171.7,133.6,165,144.9,156.1,154.1z M126.5,116.2
		c3.1-4.9,4.9-10.7,4.9-16.9c0-6.2-1.8-12-4.9-16.9h50c1.2,5.4,1.8,11.1,1.8,16.9c0,5.8-0.6,11.4-1.8,16.9H126.5z"/>
	<circle class="st2" cx="99.6" cy="99.3" r="21.7"/>
</g>
</svg>
