<?xml version="1.0" encoding="utf-8"?>
<!-- Generator: Adobe Illustrator 19.2.1, SVG Export Plug-In . SVG Version: 6.00 Build 0)  -->
<svg version="1.1" id="icon" xmlns="http://www.w3.org/2000/svg" xmlns:xlink="http://www.w3.org/1999/xlink" x="0px" y="0px"
	 viewBox="0 0 60 60" style="enable-background:new 0 0 60 60;" xml:space="preserve">
<style type="text/css">
	.st0{fill:#CBA942;}
</style>
<g>
	<path class="st0" d="M28.5,15.5v14.2c0,0.1,0,0.2-0.2,0.4c-0.1,0.1-0.2,0.2-0.4,0.2s-0.3-0.1-0.4-0.2c-0.2-0.2-0.2-0.3-0.2-0.4
		V17.4c0-0.8-0.6-1.5-1.5-1.5c-0.9,0-1.5,0.6-1.5,1.5v16.1c0,0.1,0,0.2-0.2,0.4C24.1,33.9,24,34,23.8,34c-0.2,0-0.3-0.1-0.3-0.2
		c-0.2-0.2-0.2-0.4-0.2-0.4v-5c0-0.8-0.7-1.5-1.5-1.5c-0.8,0-1.5,0.6-1.5,1.5V36c0,4.2,1,5.7,3.1,7.6c1.8,1.6,3.9,2.5,6.2,2.5h0.1
		c3.8,0,6.6-1.7,8.6-4.9c0.7-1.1,1-2.5,1-3.9V23.5c0-0.8-0.6-1.5-1.5-1.5c-0.8,0-1.5,0.6-1.5,1.5v7.2c0,0.3-0.2,0.5-0.5,0.5
		c-0.3,0-0.5-0.2-0.5-0.5V17.4c0,0,0-1.6-1.5-1.6s-1.5,1.6-1.5,1.6v12.3c0,0.1,0,0.2-0.2,0.3c-0.1,0.1-0.2,0.2-0.4,0.2
		c-0.2,0-0.3-0.1-0.4-0.2c-0.2-0.2-0.2-0.3-0.2-0.3V15.5c0-0.8-0.6-1.5-1.5-1.5C29.2,14,28.5,14.6,28.5,15.5z"/>
	<path class="st0" d="M30,53.4C17.1,53.4,6.6,42.9,6.6,30S17.1,6.6,30,6.6S53.4,17.1,53.4,30S42.9,53.4,30,53.4z M30,7.6
		C17.7,7.6,7.6,17.7,7.6,30S17.7,52.4,30,52.4S52.4,42.3,52.4,30S42.3,7.6,30,7.6z"/>
</g>
</svg>
