<?xml version="1.0" encoding="utf-8"?>
<!-- Generator: Adobe Illustrator 19.2.1, SVG Export Plug-In . SVG Version: 6.00 Build 0)  -->
<svg version="1.1" id="icon" xmlns="http://www.w3.org/2000/svg" xmlns:xlink="http://www.w3.org/1999/xlink" x="0px" y="0px"
	 viewBox="0 0 60 60" style="enable-background:new 0 0 60 60;" xml:space="preserve">
<style type="text/css">
	.st0{fill:#CBA942;}
</style>
<g>
	<g>
		<g>
			<path class="st0" d="M40.1,33.1c-1.4,0.1-3.4,1.5-5.2,2.4c-2.2,1-5.8,0.2-5.8,0.2c0.6-0.2,2.7-0.8,3.2-1c2.3-1,2.2-3.2,1-3.2
				c-1.5,0-2.3,0.4-5.3,0.8c-2.2,0.3-4.9,0.2-6.2,0.6c-1.8,0.7-4.6,5.3-4.6,5.3l4.5,4.3c0,0,2.8-2.7,4.1-2.7c3,0,3.2-0.1,6-0.2
				c1.2-0.1,1.4-0.1,2.2-0.3c3.7-1.3,7.7-4.6,7.7-5C41.9,33.4,40.9,33,40.1,33.1z"/>
			<path class="st0" d="M33.9,26.4c0.1,0,0.2,0,0.2-0.1c1-1.7,2.6-3.7,4.6-5c-1.9,1.8-3.2,3.7-4,5.5c0,0.1,0,0.1,0,0.2
				s0.1,0.1,0.2,0.1c0.2,0,0.2,0,0.4,0c1.3,0,2.6-0.8,3.4-1.4c1-0.7,1.9-1.8,2.5-2.6c0.9-1.4,1.4-3,1.6-4.7c0-0.1,0-0.1-0.1-0.2
				c0,0-0.1-0.1-0.2-0.1c-1.3,0.1-4.5,0.5-6.3,2.4c-0.1,0.1-0.7,0.7-1.4,1.7c-0.9,1.4-1.2,2.8-1,4.2C33.8,26.3,33.8,26.4,33.9,26.4z
				"/>
			<path class="st0" d="M28.9,28.4c0.8,0.6,2,1.4,3.3,1.4c0.2,0,0.2,0,0.4,0c0.1,0,0.1-0.1,0.2-0.1c0-0.1,0-0.1,0-0.2
				c-0.8-1.7-2-3.5-3.8-5.3c1.9,1.3,3.4,3.2,4.4,4.8c0,0.1,0.1,0.1,0.2,0.1c0.1,0,0.2-0.1,0.2-0.2c0.2-1.3-0.2-2.6-1-3.9
				c-0.6-1-1.3-1.6-1.4-1.6c-1.8-1.8-4.8-2.2-6-2.2c-0.1,0-0.1,0-0.2,0.1c0,0-0.1,0.1-0.1,0.2c0.1,1.6,0.6,3.2,1.5,4.6
				C27,26.7,27.9,27.7,28.9,28.4z"/>
			<path class="st0" d="M30.6,22.2c0.6,0.4,1.4,0.9,2.2,0.9c0.1,0,0.2,0,0.2,0c0,0,0.1,0,0.1-0.1V23c-0.5-1.1-1.4-2.3-2.6-3.5
				c1.3,0.9,2.2,2.2,2.9,3.2c0,0.1,0.1,0.1,0.2,0.1c0.1,0,0.1-0.1,0.1-0.1c0.2-0.9-0.1-1.8-0.6-2.6c-0.4-0.6-0.9-1-0.9-1
				c-1.2-1.2-3.2-1.4-4-1.5h-0.1v0.1c0.1,1,0.4,2.2,1,3C29.4,21.1,30,21.8,30.6,22.2z"/>
		</g>
	</g>
	<path class="st0" d="M30,53.1C17.3,53.1,6.9,42.7,6.9,30S17.3,6.9,30,6.9S53.1,17.3,53.1,30S42.7,53.1,30,53.1z M30,7.8
		C17.8,7.8,7.8,17.8,7.8,30S17.8,52.2,30,52.2S52.2,42.2,52.2,30S42.2,7.8,30,7.8z"/>
</g>
</svg>
