<?xml version="1.0" encoding="utf-8"?>
<!-- Generator: Adobe Illustrator 19.2.1, SVG Export Plug-In . SVG Version: 6.00 Build 0)  -->
<svg version="1.1" id="icon" xmlns="http://www.w3.org/2000/svg" xmlns:xlink="http://www.w3.org/1999/xlink" x="0px" y="0px"
	 viewBox="0 0 60 60" style="enable-background:new 0 0 60 60;" xml:space="preserve">
<style type="text/css">
	.st0{fill:#CBA942;}
</style>
<g>
	<g>
		<path class="st0" d="M27.1,30.8c-0.5,0.5-0.6,0.9-1.2,1.8c0.4,0.2,1.1,0.9,1.7,2c1-0.6,1.5-0.7,2.1-1.2c3.6-3,12.6-14,12.2-14.3
			S30.3,27.3,27.1,30.8z M24.8,33.5c-1.6-0.2-3.1,0.7-4.2,3.2s-2.9,3.5-3.3,3.4c1.9,0.7,7.8,2.5,9.4-4.3
			C26.1,34.2,24.8,33.5,24.8,33.5z"/>
	</g>
	<path class="st0" d="M29.7,53.1C17,53.1,6.6,42.7,6.6,30S17,6.9,29.7,6.9S52.8,17.3,52.8,30S42.4,53.1,29.7,53.1z M29.7,7.8
		C17.5,7.8,7.5,17.8,7.5,30s9.9,22.2,22.2,22.2S51.8,42.2,51.8,30S41.9,7.8,29.7,7.8z"/>
</g>
</svg>
